<svg xmlns="http://www.w3.org/2000/svg" viewBox="0 0 219 103"  stroke="#000" ><path d="M19.324 16.195l-12.396 9.7L6.12 84.1l126.65-8.623.54 24.522 71.948-39.343c.27 0 11.318-19.67 11.318-19.67-1.033-1.033-68.488 40.378-68.445 40.42-2.6.26-4.223-18.522-.808-18.863-4.948 4.075-133.44 14.347-128.125 9.97l.127-56.32z" fill="rgba(232, 232, 232, 0.88)"/><path d="M215.432 40.448l-66.29-39.073c-1.292-.504-4.2 26.713-2.013 23.82s-113.915-16.333-127.602-9l-.808 55.51c-.1 6.56 127.698-5.838 128.267-9.97-2.114 0-1.306 19.67.808 19.67l67.637-40.96z" fill="#fff"/><path d="M133.215 100l13.915-18.593M5.928 83.832l12.665-11.587" fill="#d8d8d8"/></svg>